<svg xmlns="http://www.w3.org/2000/svg" viewBox="0 0 1500 600"><g id="Lager_1" data-name="Lager 1"><path d="M329.51,442.39a189.39,189.39,0,0,0,0-300l-150,150Z"/><polygon points="136.86 442.87 275.58 442.87 136.86 304.15 136.86 442.87"/><polygon points="136.86 142.01 136.86 280.61 275.46 142.01 136.86 142.01"/><path d="M466.6,184.53h24.57v89.52h3.51l94.2-89.52h35.4L521.89,279,629.25,391.66h-36L494.68,286.34h-3.51V391.66H466.6Z"/><path d="M645.05,272.3a64.38,64.38,0,0,1,25-15.95,87.65,87.65,0,0,1,29.4-5.11q30.42,0,43.88,14.33t13.46,43.59V368q0,5.87.59,12.14t1.46,11.56H736.91a48.07,48.07,0,0,1-1.32-10.39q-.15-5.7-.15-10.09h-.58a53.62,53.62,0,0,1-18,17.26q-11.26,6.72-27.06,6.73a71.8,71.8,0,0,1-19.75-2.63A49.32,49.32,0,0,1,654,384.78a38.31,38.31,0,0,1-11-12.72,36.46,36.46,0,0,1-4.1-17.56q0-17,8.78-26.62a53.24,53.24,0,0,1,21.8-14.33,107,107,0,0,1,28.08-5.85q15.06-1.17,27.65-1.17H734v-4.1q0-14.93-8.92-22.52t-25-7.61a66.78,66.78,0,0,0-21.8,3.66,52.35,52.35,0,0,0-18.87,11.26Zm66.11,53.53q-21.93,0-34.81,6.15t-12.87,20.18q0,12.88,8.63,18.29t21.5,5.41A42.08,42.08,0,0,0,711,372.5a36.59,36.59,0,0,0,12.43-8.93,38.62,38.62,0,0,0,7.61-13A53.19,53.19,0,0,0,734,334.61v-8.78Z"/><path d="M912.44,367.38h-.59q-6.44,11.7-20.33,19.74t-32.33,8.05a67.45,67.45,0,0,1-26.91-5.41,65.67,65.67,0,0,1-21.8-15.07A70.71,70.71,0,0,1,796,351.87a80.76,80.76,0,0,1,0-57.34,69.54,69.54,0,0,1,14.63-22.82,65.5,65.5,0,0,1,22.67-15.06,77.3,77.3,0,0,1,29.4-5.41,60.88,60.88,0,0,1,27.36,6.14,67.29,67.29,0,0,1,21.79,17.26h.59V170.49h22.81V391.66H912.44Zm0-44.18a58.13,58.13,0,0,0-3.37-20,46.21,46.21,0,0,0-25.16-26.91,52.81,52.81,0,0,0-40.08,0,46.21,46.21,0,0,0-25.16,26.91,61.44,61.44,0,0,0,0,40.08,46.26,46.26,0,0,0,25.16,26.92,52.81,52.81,0,0,0,40.08,0,46.26,46.26,0,0,0,25.16-26.92A58.05,58.05,0,0,0,912.44,323.2Z"/><path d="M1091.18,367.38h-.58q-6.45,11.7-20.34,19.74t-32.32,8.05a67.5,67.5,0,0,1-26.92-5.41,65.53,65.53,0,0,1-21.79-15.07,70.54,70.54,0,0,1-14.48-22.82,80.62,80.62,0,0,1,0-57.34,69.51,69.51,0,0,1,14.62-22.82,65.55,65.55,0,0,1,22.68-15.06,77.3,77.3,0,0,1,29.4-5.41,60.84,60.84,0,0,1,27.35,6.14,67.32,67.32,0,0,1,21.8,17.26h.58V170.49H1114V391.66h-22.82Zm0-44.18a58.13,58.13,0,0,0-3.36-20,46.21,46.21,0,0,0-25.16-26.91,52.81,52.81,0,0,0-40.08,0,46.21,46.21,0,0,0-25.16,26.91,61.27,61.27,0,0,0,0,40.08,46.26,46.26,0,0,0,25.16,26.92,52.81,52.81,0,0,0,40.08,0,46.26,46.26,0,0,0,25.16-26.92A58.05,58.05,0,0,0,1091.18,323.2Z"/><path d="M1153.2,201.21a16.29,16.29,0,0,1,4.82-11.7,16.59,16.59,0,0,1,23.7,0,16.81,16.81,0,1,1-28.52,11.7Zm5.26,53.53h22.82V391.66h-22.82Z"/><path d="M1218.72,323.2a74.39,74.39,0,0,1,5.56-29.25,69.21,69.21,0,0,1,15.21-22.68,67.7,67.7,0,0,1,23.12-14.77,84,84,0,0,1,58.51,0,67.85,67.85,0,0,1,23.11,14.77A69.37,69.37,0,0,1,1359.44,294a79.75,79.75,0,0,1,0,58.51,69.43,69.43,0,0,1-15.21,22.67,67.7,67.7,0,0,1-23.11,14.77,83.84,83.84,0,0,1-58.51,0,67.55,67.55,0,0,1-23.12-14.77,69.27,69.27,0,0,1-15.21-22.67A74.44,74.44,0,0,1,1218.72,323.2Zm24.58,0a58.05,58.05,0,0,0,3.36,20,46.26,46.26,0,0,0,25.16,26.92,52.81,52.81,0,0,0,40.08,0,46.26,46.26,0,0,0,25.16-26.92,61.44,61.44,0,0,0,0-40.08,46.21,46.21,0,0,0-25.16-26.91,52.81,52.81,0,0,0-40.08,0,46.21,46.21,0,0,0-25.16,26.91A58.13,58.13,0,0,0,1243.3,323.2Z"/></g></svg>