<svg xmlns="http://www.w3.org/2000/svg" viewBox="0 0 1500 600"><g id="Lager_1" data-name="Lager 1"><path d="M516.46,481.68V508.9a25.16,25.16,0,0,1-4.6,2.19,50.11,50.11,0,0,1-5.34,1.6,46.15,46.15,0,0,1-5.62,1,48.7,48.7,0,0,1-5.34.31A31.69,31.69,0,0,1,483,511.63,26.77,26.77,0,0,1,468,496.07,31.29,31.29,0,0,1,466,485a30.32,30.32,0,0,1,2.15-11.47,28.22,28.22,0,0,1,5.93-9.2,27.21,27.21,0,0,1,9.08-6.13,29.83,29.83,0,0,1,11.63-2.22,34.54,34.54,0,0,1,12.48,1.91,23.06,23.06,0,0,1,8.11,5.27l-5.31,5.69a19.59,19.59,0,0,0-7.25-4.56,25,25,0,0,0-8-1.29,20.13,20.13,0,0,0-15.14,6.48,20.75,20.75,0,0,0-4.21,7A24.42,24.42,0,0,0,474,485a22.79,22.79,0,0,0,1.64,8.69,21.64,21.64,0,0,0,4.52,7A21,21,0,0,0,495.4,507a36.43,36.43,0,0,0,7.53-.74,21.15,21.15,0,0,0,6-2.14V488.7H496.73v-7Z"/><path d="M537.91,457.35h7.49v55.22h-7.49Z"/><path d="M559.83,457.35h8.66l16.22,44.92h.16l16.84-44.92h8.19l-21.76,55.22h-7Z"/><path d="M624.33,457.35H660v7H631.82v16.45H658v7H631.82v17.71h29.56v7h-37Z"/><path d="M709.27,457.35h19.19a24.86,24.86,0,0,1,6.67.85,15.87,15.87,0,0,1,5.31,2.54A11.9,11.9,0,0,1,744,465a13.79,13.79,0,0,1,1.28,6.12,11.28,11.28,0,0,1-2.65,7.76,15.48,15.48,0,0,1-6.86,4.41v.16a11.67,11.67,0,0,1,4.68,1.28,13,13,0,0,1,3.78,3,14,14,0,0,1,2.53,4.25,14.2,14.2,0,0,1,.94,5.22,13.79,13.79,0,0,1-1.52,6.59,14.22,14.22,0,0,1-4.17,4.8,19.53,19.53,0,0,1-6.17,3,27.36,27.36,0,0,1-7.56,1h-19Zm7.49,22.93H727a17.6,17.6,0,0,0,4-.43,9,9,0,0,0,3.27-1.44,7.41,7.41,0,0,0,2.23-2.58,8.2,8.2,0,0,0,.82-3.82,8.41,8.41,0,0,0-2.11-5.69c-1.4-1.62-3.61-2.42-6.63-2.42H716.76Zm0,25.74h11a23.1,23.1,0,0,0,3.78-.35,11.41,11.41,0,0,0,3.86-1.41,9.7,9.7,0,0,0,3.05-2.84,8.22,8.22,0,0,0,1.24-4.76c0-3.28-1.06-5.73-3.19-7.37s-5-2.46-8.66-2.46H716.76Z"/><path d="M766.21,457.35h35.65v7H773.7v16.45h26.21v7H773.7v17.71h29.56v7h-37Z"/><path d="M833.22,464.37H815.43v-7h43.06v7H840.7v48.2h-7.48Z"/><path d="M885.79,464.37H868v-7h43.06v7H893.27v48.2h-7.48Z"/><path d="M926.81,457.35h35.65v7H934.3v16.45h26.21v7H934.3v17.71h29.56v7H926.81Z"/><path d="M982.27,457.35h19.42a22.76,22.76,0,0,1,8.74,1.44,14.86,14.86,0,0,1,5.42,3.66,12.5,12.5,0,0,1,2.77,5,19.6,19.6,0,0,1,.78,5.34,14.11,14.11,0,0,1-.94,5.11,14.4,14.4,0,0,1-2.69,4.45,15.47,15.47,0,0,1-4.29,3.35,15,15,0,0,1-5.65,1.68l15.67,25.19h-9.35l-14-24.34h-8.34v24.34h-7.49Zm7.49,24.33h9.83a27.39,27.39,0,0,0,4.33-.35,11.41,11.41,0,0,0,3.82-1.29,7,7,0,0,0,2.69-2.69,10.8,10.8,0,0,0,0-9.12,7,7,0,0,0-2.69-2.69,11.41,11.41,0,0,0-3.82-1.29,26.25,26.25,0,0,0-4.33-.35h-9.83Z"/><path d="M1067.21,457.35h7.49v22.93h28.63V457.35h7.48v55.22h-7.48V487.3H1074.7v25.27h-7.49Z"/><path d="M1132.81,457.35h35.65v7H1140.3v16.45h26.21v7H1140.3v17.71h29.56v7h-37Z"/><path d="M1188.27,457.35h7.49v48.2h25.35v7h-32.84Z"/><path d="M1236.55,457.35H1256a22.76,22.76,0,0,1,8.74,1.44,14.86,14.86,0,0,1,5.42,3.66,12.62,12.62,0,0,1,2.77,5,18.67,18.67,0,0,1,0,10.68,12.52,12.52,0,0,1-2.77,5,14.75,14.75,0,0,1-5.42,3.67,22.76,22.76,0,0,1-8.74,1.44H1244v24.34h-7.49Zm7.49,24.33h9.83a27.17,27.17,0,0,0,4.32-.35A11.47,11.47,0,0,0,1262,480a7.09,7.09,0,0,0,2.69-2.69,10.8,10.8,0,0,0,0-9.12,7.09,7.09,0,0,0-2.69-2.69,11.47,11.47,0,0,0-3.83-1.29,26,26,0,0,0-4.32-.35H1244Z"/><path d="M329.51,442.39a189.39,189.39,0,0,0,0-300l-150,150Z"/><polygon points="136.86 442.87 275.58 442.87 136.86 304.15 136.86 442.87"/><polygon points="136.86 142.01 136.86 280.61 275.46 142.01 136.86 142.01"/><path d="M466.6,184.53h24.57v89.52h3.51l94.2-89.52h35.4L521.89,279,629.25,391.66h-36L494.68,286.34h-3.51V391.66H466.6Z"/><path d="M645.05,272.3a64.38,64.38,0,0,1,25-15.95,87.65,87.65,0,0,1,29.4-5.11q30.42,0,43.88,14.33t13.46,43.59V368q0,5.87.59,12.14t1.46,11.56H736.91a48.07,48.07,0,0,1-1.32-10.39q-.15-5.7-.15-10.09h-.58a53.62,53.62,0,0,1-18,17.26q-11.26,6.72-27.06,6.73a71.8,71.8,0,0,1-19.75-2.63A49.32,49.32,0,0,1,654,384.78a38.31,38.31,0,0,1-11-12.72,36.46,36.46,0,0,1-4.1-17.56q0-17,8.78-26.62a53.24,53.24,0,0,1,21.8-14.33,107,107,0,0,1,28.08-5.85q15.06-1.17,27.65-1.17H734v-4.1q0-14.93-8.92-22.52t-25-7.61a66.78,66.78,0,0,0-21.8,3.66,52.35,52.35,0,0,0-18.87,11.26Zm66.11,53.53q-21.93,0-34.81,6.15t-12.87,20.18q0,12.88,8.63,18.29t21.5,5.41A42.08,42.08,0,0,0,711,372.5a36.59,36.59,0,0,0,12.43-8.93,38.62,38.62,0,0,0,7.61-13A53.19,53.19,0,0,0,734,334.61v-8.78Z"/><path d="M912.44,367.38h-.59q-6.44,11.7-20.33,19.74t-32.33,8.05a67.45,67.45,0,0,1-26.91-5.41,65.67,65.67,0,0,1-21.8-15.07A70.71,70.71,0,0,1,796,351.87a80.76,80.76,0,0,1,0-57.34,69.54,69.54,0,0,1,14.63-22.82,65.5,65.5,0,0,1,22.67-15.06,77.3,77.3,0,0,1,29.4-5.41,60.88,60.88,0,0,1,27.36,6.14,67.29,67.29,0,0,1,21.79,17.26h.59V170.49h22.81V391.66H912.44Zm0-44.18a58.13,58.13,0,0,0-3.37-20,46.21,46.21,0,0,0-25.16-26.91,52.81,52.81,0,0,0-40.08,0,46.21,46.21,0,0,0-25.16,26.91,61.44,61.44,0,0,0,0,40.08,46.26,46.26,0,0,0,25.16,26.92,52.81,52.81,0,0,0,40.08,0,46.26,46.26,0,0,0,25.16-26.92A58.05,58.05,0,0,0,912.44,323.2Z"/><path d="M1091.18,367.38h-.58q-6.45,11.7-20.34,19.74t-32.32,8.05a67.5,67.5,0,0,1-26.92-5.41,65.53,65.53,0,0,1-21.79-15.07,70.54,70.54,0,0,1-14.48-22.82,80.62,80.62,0,0,1,0-57.34,69.51,69.51,0,0,1,14.62-22.82,65.55,65.55,0,0,1,22.68-15.06,77.3,77.3,0,0,1,29.4-5.41,60.84,60.84,0,0,1,27.35,6.14,67.32,67.32,0,0,1,21.8,17.26h.58V170.49H1114V391.66h-22.82Zm0-44.18a58.13,58.13,0,0,0-3.36-20,46.21,46.21,0,0,0-25.16-26.91,52.81,52.81,0,0,0-40.08,0,46.21,46.21,0,0,0-25.16,26.91,61.27,61.27,0,0,0,0,40.08,46.26,46.26,0,0,0,25.16,26.92,52.81,52.81,0,0,0,40.08,0,46.26,46.26,0,0,0,25.16-26.92A58.05,58.05,0,0,0,1091.18,323.2Z"/><path d="M1153.2,201.21a16.29,16.29,0,0,1,4.82-11.7,16.59,16.59,0,0,1,23.7,0,16.81,16.81,0,1,1-28.52,11.7Zm5.26,53.53h22.82V391.66h-22.82Z"/><path d="M1218.72,323.2a74.39,74.39,0,0,1,5.56-29.25,69.21,69.21,0,0,1,15.21-22.68,67.7,67.7,0,0,1,23.12-14.77,84,84,0,0,1,58.51,0,67.85,67.85,0,0,1,23.11,14.77A69.37,69.37,0,0,1,1359.44,294a79.75,79.75,0,0,1,0,58.51,69.43,69.43,0,0,1-15.21,22.67,67.7,67.7,0,0,1-23.11,14.77,83.84,83.84,0,0,1-58.51,0,67.55,67.55,0,0,1-23.12-14.77,69.27,69.27,0,0,1-15.21-22.67A74.44,74.44,0,0,1,1218.72,323.2Zm24.58,0a58.05,58.05,0,0,0,3.36,20,46.26,46.26,0,0,0,25.16,26.92,52.81,52.81,0,0,0,40.08,0,46.26,46.26,0,0,0,25.16-26.92,61.44,61.44,0,0,0,0-40.08,46.21,46.21,0,0,0-25.16-26.91,52.81,52.81,0,0,0-40.08,0,46.21,46.21,0,0,0-25.16,26.91A58.13,58.13,0,0,0,1243.3,323.2Z"/></g></svg>